<?xml version="1.0" encoding="UTF-8"?>
<svg id="Layer_1" data-name="Layer 1" xmlns="http://www.w3.org/2000/svg" viewBox="0 0 482.21 625.43">
  <path d="M476.83,334.51c-4.68-9.44-12.16-16.4-22.46-20.86-11.91-5.16-26.31-5.76-43.21-1.8-16.89,3.97-35.85,11.87-56.89,23.69-7.47,4.2-15.39,8.96-23.72,14.21-.62.09-1.25.32-1.87.74-28.37,19.12-69.11,46.32-91.84,60.27-37.3,22.9-70.64,34.36-100.03,34.36-13.58,0-25.19-3.04-34.81-9.12-9.63-6.08-16.93-14.7-21.89-25.84-4.97-11.14-7.45-25.03-7.45-41.65,0-28.78,10.13-62.13,30.41-100.03,20.27-37.9,45.55-74.64,75.86-110.22,30.3-35.57,59.9-64.86,88.78-87.87,28.88-23,50.42-34.51,64.61-34.51,5.06,0,8.87,1.57,11.4,4.71,2.53,3.14,3.8,7.65,3.8,13.53,0,14.19-6.84,32.38-20.52,54.58-13.68,22.2-28.73,42.52-45.15,60.96-16.42,18.45-26.35,27.67-29.8,27.67-1.22,0-1.83-.81-1.83-2.43,0-1.01,1.06-3.75,3.19-8.21,2.13-4.46,3.19-7.6,3.19-9.42,0-1.22-.71-1.82-2.13-1.82-2.84,0-11.51,6.84-26,20.52-14.49,13.68-27.87,28.73-40.13,45.15-12.27,16.42-18.39,30.4-18.39,41.96,0,6.29,2.68,11.91,8.06,16.88,5.37,4.97,11.2,7.45,17.48,7.45,9.32,0,24.57-8.26,45.76-24.78,21.18-16.52,43.43-37.85,66.74-64,23.31-26.15,42.77-53.26,58.38-81.33,15.61-28.07,23.41-53.56,23.41-76.47,0-12.16-1.93-22.9-5.78-32.23-3.85-9.32-9.33-16.42-16.42-21.28-7.1-4.86-15.71-7.3-25.84-7.3s-22.45,2.54-37.55,7.6c-15.1,5.07-31.47,12.77-49.1,23.11-17.63,10.34-37.3,24.58-58.98,42.72-21.69,18.14-43.68,39.68-65.98,64.61-21.49,24.12-40.19,47.13-56.1,69.02-15.92,21.89-29.34,43.13-40.29,63.7-10.95,20.58-19.31,40.95-25.08,61.11-5.78,20.17-8.67,39.28-8.67,57.31,0,22.9,4,42.72,12.01,59.44,8,16.72,19.86,29.44,35.57,38.16,15.71,8.71,34.51,13.07,56.4,13.07,25.34,0,51.58-6.64,78.75-19.91,27.16-13.28,54.98-32.23,83.46-56.86,9.97-8.62,20.3-18.09,30.95-28.34,24.7-21.18,47.52-37.41,67.1-44.4,24.64-8.79,43.88-10.19,57.69-4.2,6.39,2.77,10.9,7.31,13.53,13.63,2.64,6.32,3.4,13.97,2.27,22.97-1.13,8.99-4.27,19.44-9.43,31.34-8.94,20.6-24.05,42.41-45.35,65.42-21.29,23-44.59,44.15-69.88,63.44-25.29,19.29-48.3,34.23-69.02,44.81-20.72,10.58-34.42,14.43-41.09,11.53-2.38-1.03-3.68-2.93-3.9-5.7-.22-2.77.59-6.25,2.41-10.46,4.41-10.16,13.27-21.79,26.6-34.89,13.32-13.1,26.71-24.58,40.15-34.44,13.44-9.86,20.98-14.44,22.6-13.73.57.25.6.95.1,2.11-.31.72-1.66,2.47-4.05,5.23-2.38,2.75-3.86,4.79-4.43,6.1-.38.87-.23,1.45.43,1.74,1.34.58,7.53-2.55,18.59-9.39,11.06-6.84,22.02-14.89,32.89-24.14,10.86-9.25,18.09-18.02,21.67-26.29,1.95-4.5,2.44-9.08,1.45-13.73-.98-4.65-2.95-7.62-5.91-8.9-4.38-1.9-14.12.9-29.21,8.41-15.08,7.51-32.17,18.25-51.24,32.22-19.08,13.97-36.64,29.41-52.7,46.33-16.05,16.92-27.64,33.57-34.75,49.97-3.78,8.71-6.2,16.79-7.29,24.25-1.08,7.46-.71,13.66,1.11,18.58,1.83,4.93,5.12,8.43,9.88,10.49,4.67,2.03,11.34,2.76,20.01,2.21,8.67-.55,18.76-2.73,30.26-6.53,11.5-3.81,25.16-9.99,40.99-18.56,15.83-8.57,32.86-19.5,51.08-32.8,17.59-12.89,33.52-25.55,47.8-37.98,14.28-12.43,27.18-24.9,38.71-37.39,11.54-12.5,21.79-25.38,30.77-38.64,8.98-13.26,16.27-26.35,21.87-39.27,7.11-16.4,11.38-31.4,12.81-45,1.43-13.6-.2-25.13-4.88-34.57Z" style="fill: #231f20;"/>
  <path d="M378.27,206.27c.14,3.85-.11,11.35-4.09,19.51-2.92,5.99-6.72,10.02-9.33,12.38-2.94,2.29-7.46,5.27-13.54,7.39-7.7,2.69-14.45,2.82-18.57,2.58-.88-.05,9.89.64,21.15,6.02,7.15,3.42,11.94,7.72,14.17,9.91,1.84,1.81,5.32,5.27,8.28,10.56,4.78,8.55,5.48,16.98,5.42,22.12.11-5.83.94-13.64,3.95-22.29,1.45-4.16,3.14-7.77,4.82-10.83,2.52-3.65,6.49-8.37,12.5-12.11,10.35-6.44,21.6-6.79,21.5-7.53-.1-.72-10.51,2.15-21.79-1.68-4.74-1.61-8.46-3.79-11.16-5.7-2.44-2.58-5.4-6.26-7.93-11.15-3.95-7.64-5.05-14.73-5.36-19.17Z" style="fill: #231f20;"/>
</svg>