<?xml version="1.0" encoding="UTF-8"?>
<svg id="Layer_1" data-name="Layer 1" xmlns="http://www.w3.org/2000/svg" viewBox="0 0 837.26 147.73">
  <g>
    <path d="M177.28,101.85v6.14c0,3.07-.58,5.98-1.75,8.73-1.17,2.75-2.77,5.19-4.82,7.33-2.05,2.14-4.45,3.84-7.19,5.1-2.75,1.26-5.7,1.89-8.87,1.89-2.7,0-5.45-.37-8.24-1.12s-5.31-2.05-7.54-3.91c-2.23-1.86-4.07-4.26-5.52-7.19-1.44-2.93-2.16-6.68-2.16-11.24v-54.74c0-3.26.56-6.28,1.68-9.08s2.7-5.21,4.75-7.26c2.05-2.05,4.49-3.65,7.33-4.82,2.84-1.16,5.98-1.75,9.43-1.75,6.7,0,12.15,2.19,16.34,6.56,2.05,2.14,3.65,4.68,4.82,7.61,1.16,2.93,1.75,6.12,1.75,9.57v5.59h-14.24v-4.75c0-2.79-.79-5.21-2.37-7.26-1.58-2.05-3.73-3.07-6.42-3.07-3.54,0-5.89,1.1-7.05,3.28-1.17,2.19-1.75,4.96-1.75,8.31v50.83c0,2.89.63,5.31,1.89,7.26s3.51,2.93,6.77,2.93c.93,0,1.93-.16,3-.49,1.07-.33,2.07-.86,3-1.61.84-.74,1.54-1.77,2.09-3.07.56-1.3.84-2.93.84-4.89v-4.89h14.24Z" style="fill: #231f20;"/>
    <path d="M188.03,54.23c0-4,.7-7.54,2.09-10.61s3.26-5.63,5.59-7.68c2.23-1.96,4.77-3.44,7.61-4.47,2.84-1.02,5.7-1.54,8.59-1.54s5.75.51,8.59,1.54c2.84,1.03,5.42,2.51,7.75,4.47,2.23,2.05,4.05,4.61,5.45,7.68,1.4,3.07,2.09,6.61,2.09,10.61v52.51c0,4.19-.7,7.78-2.09,10.75-1.4,2.98-3.21,5.45-5.45,7.4-2.33,2.05-4.91,3.58-7.75,4.61-2.84,1.02-5.7,1.54-8.59,1.54s-5.75-.51-8.59-1.54c-2.84-1.02-5.38-2.56-7.61-4.61-2.33-1.96-4.19-4.42-5.59-7.4-1.4-2.98-2.09-6.56-2.09-10.75v-52.51ZM202.28,106.74c0,3.45.95,5.98,2.86,7.61,1.91,1.63,4.17,2.44,6.77,2.44s4.86-.81,6.77-2.44c1.91-1.63,2.86-4.17,2.86-7.61v-52.51c0-3.44-.96-5.98-2.86-7.61-1.91-1.63-4.17-2.44-6.77-2.44s-4.87.82-6.77,2.44c-1.91,1.63-2.86,4.17-2.86,7.61v52.51Z" style="fill: #231f20;"/>
    <path d="M294.45,59.4h-14.24v-3.21c0-3.26-.77-6.07-2.3-8.45-1.54-2.37-4.12-3.56-7.75-3.56-1.96,0-3.54.37-4.75,1.12-1.21.75-2.19,1.68-2.93,2.79-.75,1.21-1.26,2.58-1.54,4.12s-.42,3.14-.42,4.82c0,1.96.07,3.58.21,4.89.14,1.3.49,2.47,1.05,3.49.56,1.03,1.37,1.91,2.44,2.65,1.07.75,2.54,1.49,4.4,2.24l10.89,4.33c3.16,1.21,5.73,2.63,7.68,4.26,1.96,1.63,3.49,3.52,4.61,5.66,1.02,2.23,1.72,4.77,2.1,7.61.37,2.84.56,6.07.56,9.71,0,4.19-.42,8.08-1.26,11.66-.84,3.58-2.19,6.63-4.05,9.15-1.96,2.61-4.52,4.66-7.68,6.14-3.17,1.49-7.03,2.23-11.59,2.23-3.45,0-6.66-.61-9.64-1.82-2.98-1.21-5.54-2.88-7.68-5.03-2.14-2.14-3.84-4.63-5.1-7.47-1.26-2.84-1.89-5.93-1.89-9.29v-5.31h14.24v4.47c0,2.61.77,4.96,2.3,7.05s4.12,3.14,7.75,3.14c2.42,0,4.31-.35,5.66-1.05,1.35-.7,2.4-1.7,3.14-3,.74-1.3,1.19-2.86,1.33-4.68s.21-3.84.21-6.08c0-2.61-.09-4.75-.28-6.42-.19-1.68-.56-3.02-1.12-4.05-.65-1.02-1.51-1.86-2.58-2.51-1.07-.65-2.49-1.35-4.26-2.09l-10.19-4.19c-6.14-2.51-10.26-5.84-12.36-9.99-2.09-4.14-3.14-9.33-3.14-15.57,0-3.72.51-7.26,1.54-10.61,1.02-3.35,2.56-6.24,4.61-8.66,1.96-2.42,4.44-4.35,7.47-5.8,3.02-1.44,6.63-2.16,10.82-2.16,3.54,0,6.77.65,9.71,1.96,2.93,1.3,5.47,3.03,7.61,5.17,4.28,4.47,6.42,9.59,6.42,15.36v6.98Z" style="fill: #231f20;"/>
    <path d="M305.06,130.2V30.77h13.69l18.29,52.65h.28l18.15-52.65h13.83v99.43h-14.24v-60.47h-.28l-14.1,42.73h-7.12l-13.97-42.73h-.28v60.47h-14.24Z" style="fill: #231f20;"/>
    <path d="M383.12,130.2V30.77h14.25v99.43h-14.25Z" style="fill: #231f20;"/>
    <path d="M456.44,101.85v6.14c0,3.07-.58,5.98-1.75,8.73-1.17,2.75-2.77,5.19-4.82,7.33-2.05,2.14-4.45,3.84-7.19,5.1-2.75,1.26-5.7,1.89-8.87,1.89-2.7,0-5.45-.37-8.24-1.12-2.79-.74-5.31-2.05-7.54-3.91-2.23-1.86-4.07-4.26-5.52-7.19-1.44-2.93-2.17-6.68-2.17-11.24v-54.74c0-3.26.56-6.28,1.68-9.08s2.7-5.21,4.75-7.26,4.49-3.65,7.33-4.82c2.84-1.16,5.98-1.75,9.43-1.75,6.7,0,12.15,2.19,16.34,6.56,2.05,2.14,3.65,4.68,4.82,7.61,1.16,2.93,1.75,6.12,1.75,9.57v5.59h-14.24v-4.75c0-2.79-.79-5.21-2.37-7.26-1.58-2.05-3.72-3.07-6.42-3.07-3.54,0-5.89,1.1-7.05,3.28-1.17,2.19-1.75,4.96-1.75,8.31v50.83c0,2.89.63,5.31,1.89,7.26s3.51,2.93,6.77,2.93c.93,0,1.93-.16,3-.49,1.07-.33,2.07-.86,3-1.61.84-.74,1.54-1.77,2.09-3.07.56-1.3.84-2.93.84-4.89v-4.89h14.24Z" style="fill: #231f20;"/>
    <path d="M540.09,59.4h-14.24v-3.21c0-3.26-.77-6.07-2.3-8.45-1.54-2.37-4.12-3.56-7.75-3.56-1.96,0-3.54.37-4.75,1.12-1.21.75-2.19,1.68-2.93,2.79-.75,1.21-1.26,2.58-1.54,4.12s-.42,3.14-.42,4.82c0,1.96.07,3.58.21,4.89.14,1.3.49,2.47,1.05,3.49.56,1.03,1.37,1.91,2.44,2.65,1.07.75,2.54,1.49,4.4,2.24l10.89,4.33c3.16,1.21,5.73,2.63,7.68,4.26,1.96,1.63,3.49,3.52,4.61,5.66,1.02,2.23,1.72,4.77,2.09,7.61.37,2.84.56,6.07.56,9.71,0,4.19-.42,8.08-1.26,11.66-.84,3.58-2.19,6.63-4.05,9.15-1.96,2.61-4.52,4.66-7.68,6.14-3.17,1.49-7.03,2.23-11.59,2.23-3.45,0-6.66-.61-9.64-1.82-2.98-1.21-5.54-2.88-7.68-5.03-2.14-2.14-3.84-4.63-5.1-7.47-1.26-2.84-1.89-5.93-1.89-9.29v-5.31h14.24v4.47c0,2.61.77,4.96,2.3,7.05s4.12,3.14,7.75,3.14c2.42,0,4.3-.35,5.66-1.05,1.35-.7,2.4-1.7,3.14-3,.74-1.3,1.19-2.86,1.33-4.68s.21-3.84.21-6.08c0-2.61-.09-4.75-.28-6.42-.19-1.68-.56-3.02-1.12-4.05-.65-1.02-1.51-1.86-2.58-2.51-1.07-.65-2.49-1.35-4.26-2.09l-10.2-4.19c-6.14-2.51-10.26-5.84-12.36-9.99-2.09-4.14-3.14-9.33-3.14-15.57,0-3.72.51-7.26,1.54-10.61,1.02-3.35,2.56-6.24,4.61-8.66,1.96-2.42,4.45-4.35,7.47-5.8,3.02-1.44,6.63-2.16,10.82-2.16,3.54,0,6.77.65,9.71,1.96,2.93,1.3,5.47,3.03,7.61,5.17,4.28,4.47,6.42,9.59,6.42,15.36v6.98Z" style="fill: #231f20;"/>
    <path d="M549.86,54.23c0-4,.7-7.54,2.09-10.61s3.26-5.63,5.59-7.68c2.23-1.96,4.77-3.44,7.61-4.47,2.84-1.02,5.7-1.54,8.59-1.54s5.75.51,8.59,1.54c2.84,1.03,5.42,2.51,7.75,4.47,2.23,2.05,4.05,4.61,5.45,7.68s2.09,6.61,2.09,10.61v52.51c0,4.19-.7,7.78-2.09,10.75-1.4,2.98-3.21,5.45-5.45,7.4-2.33,2.05-4.91,3.58-7.75,4.61-2.84,1.02-5.7,1.54-8.59,1.54s-5.75-.51-8.59-1.54c-2.84-1.02-5.38-2.56-7.61-4.61-2.33-1.96-4.19-4.42-5.59-7.4-1.4-2.98-2.09-6.56-2.09-10.75v-52.51ZM564.11,106.74c0,3.45.95,5.98,2.86,7.61,1.91,1.63,4.17,2.44,6.77,2.44s4.86-.81,6.77-2.44c1.91-1.63,2.86-4.17,2.86-7.61v-52.51c0-3.44-.96-5.98-2.86-7.61-1.91-1.63-4.17-2.44-6.77-2.44s-4.87.82-6.77,2.44c-1.91,1.63-2.86,4.17-2.86,7.61v52.51Z" style="fill: #231f20;"/>
    <path d="M656.28,30.77v77.09c0,3.26-.58,6.26-1.75,9.01-1.17,2.75-2.82,5.19-4.96,7.33s-4.61,3.82-7.4,5.03-5.77,1.82-8.94,1.82-6.12-.61-8.87-1.82c-2.75-1.21-5.19-2.88-7.33-5.03-2.14-2.14-3.82-4.58-5.03-7.33-1.21-2.75-1.82-5.75-1.82-9.01V30.77h14.25v75.69c0,3.54.84,6.15,2.51,7.82s3.77,2.51,6.28,2.51,4.61-.84,6.28-2.51,2.51-4.28,2.51-7.82V30.77h14.24Z" style="fill: #231f20;"/>
    <path d="M669.12,130.2V30.77h13.69l21.51,59.91h.28V30.77h14.24v99.43h-13.41l-21.79-59.77h-.28v59.77h-14.25Z" style="fill: #231f20;"/>
    <path d="M731.69,130.2V30.77h21.09c8.19,0,14.41,2.23,18.64,6.7,4.24,4.47,6.35,10.8,6.35,18.99v46.5c0,9.31-2.26,16.18-6.77,20.6-4.52,4.42-11.01,6.63-19.48,6.63h-19.83ZM745.93,44.18v72.62h6.56c4,0,6.84-1,8.52-3,1.68-2,2.51-5.14,2.51-9.43v-47.9c0-3.91-.79-6.93-2.37-9.08-1.58-2.14-4.47-3.21-8.66-3.21h-6.56Z" style="fill: #231f20;"/>
    <path d="M837.26,59.4h-14.24v-3.21c0-3.26-.77-6.07-2.3-8.45-1.54-2.37-4.12-3.56-7.75-3.56-1.96,0-3.54.37-4.75,1.12-1.21.75-2.19,1.68-2.93,2.79-.75,1.21-1.26,2.58-1.54,4.12s-.42,3.14-.42,4.82c0,1.96.07,3.58.21,4.89.14,1.3.49,2.47,1.05,3.49.56,1.03,1.37,1.91,2.44,2.65,1.07.75,2.54,1.49,4.4,2.24l10.89,4.33c3.16,1.21,5.73,2.63,7.68,4.26,1.96,1.63,3.49,3.52,4.61,5.66,1.02,2.23,1.72,4.77,2.09,7.61.37,2.84.56,6.07.56,9.71,0,4.19-.42,8.08-1.26,11.66-.84,3.58-2.19,6.63-4.05,9.15-1.96,2.61-4.52,4.66-7.68,6.14-3.17,1.49-7.03,2.23-11.59,2.23-3.45,0-6.66-.61-9.64-1.82-2.98-1.21-5.54-2.88-7.68-5.03-2.14-2.14-3.84-4.63-5.1-7.47-1.26-2.84-1.89-5.93-1.89-9.29v-5.31h14.24v4.47c0,2.61.77,4.96,2.3,7.05s4.12,3.14,7.75,3.14c2.42,0,4.3-.35,5.66-1.05,1.35-.7,2.4-1.7,3.14-3,.74-1.3,1.19-2.86,1.33-4.68s.21-3.84.21-6.08c0-2.61-.09-4.75-.28-6.42-.19-1.68-.56-3.02-1.12-4.05-.65-1.02-1.51-1.86-2.58-2.51-1.07-.65-2.49-1.35-4.26-2.09l-10.2-4.19c-6.14-2.51-10.26-5.84-12.36-9.99-2.09-4.14-3.14-9.33-3.14-15.57,0-3.72.51-7.26,1.54-10.61,1.02-3.35,2.56-6.24,4.61-8.66,1.96-2.42,4.45-4.35,7.47-5.8,3.02-1.44,6.63-2.16,10.82-2.16,3.54,0,6.77.65,9.71,1.96,2.93,1.3,5.47,3.03,7.61,5.17,4.28,4.47,6.42,9.59,6.42,15.36v6.98Z" style="fill: #231f20;"/>
  </g>
  <g>
    <path d="M112.63,79.02c-1.1-2.23-2.87-3.87-5.3-4.93-2.81-1.22-6.22-1.36-10.21-.42-3.99.94-8.47,2.8-13.44,5.6-1.77.99-3.64,2.12-5.6,3.36-.15.02-.3.07-.44.17-6.7,4.52-16.33,10.94-21.69,14.24-8.81,5.41-16.69,8.12-23.63,8.12-3.21,0-5.95-.72-8.22-2.15-2.27-1.44-4-3.47-5.17-6.1-1.17-2.63-1.76-5.91-1.76-9.84,0-6.8,2.39-14.67,7.18-23.63,4.79-8.95,10.76-17.63,17.92-26.03,7.16-8.4,14.15-15.32,20.97-20.76,6.82-5.43,11.91-8.15,15.26-8.15,1.2,0,2.09.37,2.69,1.11.6.74.9,1.81.9,3.2,0,3.35-1.62,7.65-4.85,12.89-3.23,5.24-6.79,10.04-10.67,14.4-3.88,4.36-6.22,6.54-7.04,6.54-.29,0-.43-.19-.43-.57,0-.24.25-.89.75-1.94.5-1.05.75-1.8.75-2.23,0-.29-.17-.43-.5-.43-.67,0-2.72,1.62-6.14,4.85-3.42,3.23-6.58,6.79-9.48,10.67-2.9,3.88-4.35,7.18-4.35,9.91,0,1.48.63,2.81,1.9,3.99,1.27,1.17,2.64,1.76,4.13,1.76,2.2,0,5.8-1.95,10.81-5.85,5-3.9,10.26-8.94,15.76-15.12,5.51-6.18,10.1-12.58,13.79-19.21,3.69-6.63,5.53-12.65,5.53-18.06,0-2.87-.46-5.41-1.36-7.61-.91-2.2-2.2-3.88-3.88-5.03-1.68-1.15-3.71-1.72-6.1-1.72s-5.3.6-8.87,1.8c-3.57,1.2-7.43,3.02-11.6,5.46-4.17,2.44-8.81,5.81-13.93,10.09-5.12,4.29-10.32,9.37-15.59,15.26-5.08,5.7-9.49,11.13-13.25,16.3-3.76,5.17-6.93,10.19-9.52,15.05-2.59,4.86-4.56,9.67-5.93,14.44-1.36,4.77-2.05,9.28-2.05,13.54,0,5.41.94,10.09,2.84,14.04,1.89,3.95,4.69,6.95,8.4,9.01,3.71,2.06,8.15,3.09,13.32,3.09,5.98,0,12.18-1.57,18.6-4.7,6.42-3.14,12.99-7.61,19.71-13.43,2.36-2.04,4.79-4.27,7.31-6.69,5.83-5,11.23-8.84,15.85-10.49,5.82-2.08,10.36-2.41,13.63-.99,1.51.65,2.57,1.73,3.2,3.22.62,1.49.8,3.3.54,5.42-.27,2.12-1.01,4.59-2.23,7.4-2.11,4.87-5.68,10.02-10.71,15.45-5.03,5.43-10.53,10.43-16.51,14.99-5.97,4.56-11.41,8.08-16.3,10.58-4.89,2.5-8.13,3.41-9.71,2.72-.56-.24-.87-.69-.92-1.35-.05-.65.14-1.48.57-2.47,1.04-2.4,3.13-5.15,6.28-8.24,3.15-3.09,6.31-5.81,9.48-8.13,3.18-2.33,4.96-3.41,5.34-3.24.13.06.14.22.02.5-.07.17-.39.58-.96,1.23-.56.65-.91,1.13-1.05,1.44-.09.21-.05.34.1.41.32.14,1.78-.6,4.39-2.22,2.61-1.62,5.2-3.52,7.77-5.7,2.57-2.19,4.27-4.26,5.12-6.21.46-1.06.58-2.14.34-3.24-.23-1.1-.7-1.8-1.4-2.1-1.04-.45-3.33.21-6.9,1.99-3.56,1.77-7.6,4.31-12.1,7.61-4.51,3.3-8.66,6.95-12.45,10.94-3.79,4-6.53,7.93-8.21,11.8-.89,2.06-1.47,3.97-1.72,5.73-.26,1.76-.17,3.23.26,4.39.43,1.16,1.21,1.99,2.33,2.48,1.1.48,2.68.65,4.73.52,2.05-.13,4.43-.64,7.15-1.54,2.72-.9,5.94-2.36,9.68-4.38,3.74-2.02,7.76-4.61,12.07-7.75,4.16-3.05,7.92-6.03,11.29-8.97,3.37-2.94,6.42-5.88,9.14-8.83,2.73-2.95,5.15-5.99,7.27-9.13,2.12-3.13,3.84-6.22,5.17-9.28,1.68-3.87,2.69-7.42,3.03-10.63.34-3.21-.05-5.94-1.15-8.17Z" style="fill: #231f20;"/>
    <path d="M89.35,48.72c.03.91-.03,2.68-.97,4.61-.69,1.41-1.59,2.37-2.2,2.92-.69.54-1.76,1.24-3.2,1.75-1.82.64-3.41.67-4.39.61-.21-.01,2.34.15,5,1.42,1.69.81,2.82,1.82,3.35,2.34.44.43,1.26,1.24,1.96,2.49,1.13,2.02,1.3,4.01,1.28,5.22.03-1.38.22-3.22.93-5.27.34-.98.74-1.84,1.14-2.56.59-.86,1.53-1.98,2.95-2.86,2.44-1.52,5.1-1.6,5.08-1.78-.02-.17-2.48.51-5.15-.4-1.12-.38-2-.9-2.64-1.35-.58-.61-1.27-1.48-1.87-2.63-.93-1.81-1.19-3.48-1.27-4.53Z" style="fill: #231f20;"/>
  </g>
</svg>